<svg xmlns="http://www.w3.org/2000/svg" width="180" height="180" viewBox="0 0 180 180" fill="none">
  <rect width="180" height="180" rx="40" fill="url(#bg)"/>
  <g stroke="#fff" stroke-width="5.5" stroke-linecap="round" stroke-linejoin="round" transform="translate(22.5 22.5) scale(5.625)">
    <path d="M12 22V8"/>
    <path d="M12 8c0-3.5 3-6 6-6-1 3-3 5.5-6 6z"/>
    <path d="M12 8c0-3.5-3-6-6-6 1 3 3 5.5 6 6z"/>
    <path d="M12 14c0-2.5 2.5-4.5 5-4.5-.8 2.2-2.5 4-5 4.5z"/>
    <path d="M12 14c0-2.5-2.5-4.5-5-4.5.8 2.2 2.5 4 5 4.5z"/>
  </g>
  <defs>
    <linearGradient id="bg" x1="0" y1="0" x2="180" y2="180">
      <stop stop-color="#3D7A54"/>
      <stop offset="1" stop-color="#1F4A2F"/>
    </linearGradient>
  </defs>
</svg>
